HIERARCHY
ROOT Hips
{
	OFFSET 15.585500 22.159004 44.358299
	CHANNELS 6 Xposition Yposition Zposition Zrotation Xrotation Yrotation
	JOINT Chest
	{
		OFFSET -0.128500 0.160400 6.566002
		CHANNELS 6 Xposition Yposition Zposition Zrotation Xrotation Yrotation
		JOINT Chest2
		{
			OFFSET 0.000000 0.000000 3.554802
			CHANNELS 6 Xposition Yposition Zposition Zrotation Xrotation Yrotation
			JOINT Neck
			{
				OFFSET 0.000000 0.000000 8.267998
				CHANNELS 6 Xposition Yposition Zposition Zrotation Xrotation Yrotation
				JOINT Head
				{
					OFFSET 0.000000 0.000002 2.173897
					CHANNELS 6 Xposition Yposition Zposition Zrotation Xrotation Yrotation
					End Site
					{
						OFFSET 0.000000 0.000000 7.718697
					}
				}
			}
			JOINT LeftCollar
			{
				OFFSET 2.057500 0.117599 5.946301
				CHANNELS 6 Xposition Yposition Zposition Zrotation Xrotation Yrotation
				JOINT LeftShoulder
				{
					OFFSET 4.957699 0.000000 0.000000
					CHANNELS 6 Xposition Yposition Zposition Zrotation Xrotation Yrotation
					JOINT LeftElbow
					{
						OFFSET 0.000000 0.000000 -8.465500
						CHANNELS 6 Xposition Yposition Zposition Zrotation Xrotation Yrotation
						JOINT LeftWrist
						{
							OFFSET 0.000000 -0.000002 -14.594898
							CHANNELS 6 Xposition Yposition Zposition Zrotation Xrotation Yrotation
							End Site
							{
								OFFSET 0.000000 0.000000 -2.173901
							}
						}
					}
				}
			}
			JOINT RightCollar
			{
				OFFSET -3.048500 -0.728800 6.604099
				CHANNELS 6 Xposition Yposition Zposition Zrotation Xrotation Yrotation
				JOINT RightShoulder
				{
					OFFSET -3.710299 0.000000 0.000000
					CHANNELS 6 Xposition Yposition Zposition Zrotation Xrotation Yrotation
					JOINT RightElbow
					{
						OFFSET 0.000000 0.000000 -10.450901
						CHANNELS 6 Xposition Yposition Zposition Zrotation Xrotation Yrotation
						JOINT RightWrist
						{
							OFFSET 0.000000 0.000000 -12.539200
							CHANNELS 6 Xposition Yposition Zposition Zrotation Xrotation Yrotation
							End Site
							{
								OFFSET 0.000000 -0.000002 -2.173901
							}
						}
					}
				}
			}
		}
	}
	JOINT LeftHip
	{
		OFFSET 2.442599 -0.601400 -2.767502
		CHANNELS 6 Xposition Yposition Zposition Zrotation Xrotation Yrotation
		JOINT LeftKnee
		{
			OFFSET 0.000000 -0.000002 -17.033703
			CHANNELS 6 Xposition Yposition Zposition Zrotation Xrotation Yrotation
			JOINT LeftAnkle
			{
				OFFSET 0.000000 -0.000002 -19.318800
				CHANNELS 6 Xposition Yposition Zposition Zrotation Xrotation Yrotation
				End Site
				{
					OFFSET 0.000000 -8.281900 0.000000
				}
			}
		}
	}
	JOINT RightHip
	{
		OFFSET -3.126200 -0.601400 -2.283501
		CHANNELS 6 Xposition Yposition Zposition Zrotation Xrotation Yrotation
		JOINT RightKnee
		{
			OFFSET 0.000000 -0.000002 -16.919401
			CHANNELS 6 Xposition Yposition Zposition Zrotation Xrotation Yrotation
			JOINT RightAnkle
			{
				OFFSET 0.000000 -0.000002 -18.035900
				CHANNELS 6 Xposition Yposition Zposition Zrotation Xrotation Yrotation
				End Site
				{
					OFFSET 0.000000 -9.230099 0.000000
				}
			}
		}
	}
}
MOTION
Frames: 7
Frame Time: 0.041667
23.456900 37.826702 8.945797 2.676954 8.193018 -3.047195 -0.128497 0.160399 6.566009 -2.390499 -1.062584 1.640453 -0.000002 0.000002 3.554802 0.266255 -12.225375 -1.317108 -0.000003 -0.000002 8.268002 9.198169 4.726513 -18.360450 0.000001 0.000006 2.173896 -16.238932 -6.976700 2.672839 2.057506 0.117604 5.946300 -12.905322 -2.652527 7.078294 4.957698 0.000006 0.000001 -6.131463 1.376066 -171.727717 -0.000004 0.000009 -8.465506 -112.217898 -154.417163 -165.216388 0.000002 -0.000002 -14.594900 -639.672569 -7.588677 -358.818223 -3.048503 -0.728801 6.604101 15.963820 -6.996221 8.024168 -3.710297 -0.000001 -0.000004 37.690644 -2.150629 156.765272 0.000003 0.000002 -10.450894 332.877903 -30.646307 356.255291 0.000005 0.000001 -12.539186 425.518764 185.788659 -181.952182 2.442596 -0.601395 -2.767497 134.159054 -9.426287 97.167767 -0.000000 0.000003 -17.033710 -169.306251 47.309937 174.967467 -0.000005 0.000000 -19.318804 -146.832483 120.300450 400.227420 -3.126193 -0.601399 -2.283496 -133.628416 -24.018432 -104.724278 -0.000005 -0.000005 -16.919392 308.427984 -57.208353 -218.855694 -0.000001 -0.000002 -18.035896 167.697345 53.932827 -181.477361
23.457199 37.826904 8.945400 2.677760 8.193978 -3.042204 -0.128496 0.160398 6.566009 -2.392401 -1.056948 1.638460 -0.000002 0.000006 3.554801 0.272252 -12.223709 -1.315758 -0.000004 0.000008 8.268003 9.229005 4.695755 -18.386878 0.000003 -0.000001 2.173896 -16.276018 -6.979081 2.707489 2.057500 0.117600 5.946304 -12.917822 -2.648982 7.081567 4.957695 0.000005 -0.000003 -6.187403 1.364812 -171.727608 -0.000004 0.000002 -8.465498 -112.270401 -154.420796 -165.194477 -0.000000 -0.000004 -14.594891 -639.776771 -7.632004 -358.807350 -3.048503 -0.728798 6.604102 16.009798 -6.986101 7.944469 -3.710294 0.000003 -0.000008 37.837892 -2.178344 156.815187 -0.000004 0.000005 -10.450893 333.076798 -30.694006 356.261656 -0.000003 -0.000001 -12.539198 425.563488 185.770504 -181.952824 2.442595 -0.601403 -2.767499 134.153644 -9.451727 97.167992 -0.000002 0.000002 -17.033710 -169.293629 47.315808 174.978136 -0.000004 -0.000000 -19.318800 -146.831035 120.304234 400.219333 -3.126197 -0.601407 -2.283500 -133.628963 -24.003395 -104.719156 -0.000002 0.000002 -16.919394 308.484838 -57.223834 -218.820929 0.000002 -0.000003 -18.035894 167.745034 53.931464 -181.484219
23.457703 37.827305 8.945095 2.678822 8.194505 -3.037723 -0.128496 0.160399 6.566008 -2.394119 -1.051069 1.635676 0.000002 -0.000004 3.554804 0.281109 -12.220703 -1.313525 -0.000002 0.000000 8.268004 9.257202 4.666376 -18.411427 -0.000000 0.000006 2.173898 -16.313379 -6.983626 2.741785 2.057502 0.117604 5.946307 -12.931315 -2.646976 7.080257 4.957700 0.000011 -0.000006 -6.243007 1.352654 -171.725204 -0.000001 0.000001 -8.465489 -112.325856 -154.424430 -165.170490 0.000002 0.000003 -14.594900 -639.881792 -7.677869 -358.797787 -3.048501 -0.728802 6.604101 16.052022 -6.974175 7.876431 -3.710298 0.000000 -0.000006 37.974373 -2.210559 156.856824 0.000004 0.000003 -10.450898 333.254465 -30.743631 356.265044 -0.000000 -0.000001 -12.539196 425.619577 185.752336 -181.951540 2.442595 -0.601400 -2.767497 134.147593 -9.475464 97.167029 0.000003 -0.000005 -17.033707 -169.281908 47.321494 174.988176 -0.000001 0.000000 -19.318802 -146.829383 120.308236 400.211110 -3.126197 -0.601401 -2.283496 -133.629291 -23.993350 -104.712011 -0.000003 -0.000001 -16.919395 308.540217 -57.241227 -218.784975 0.000002 0.000002 -18.035896 167.797681 53.929596 -181.490188
23.458399 37.827606 8.944996 2.680064 8.194601 -3.033943 -0.128498 0.160401 6.566005 -2.395760 -1.044961 1.632101 -0.000002 0.000006 3.554802 0.292829 -12.216158 -1.310408 -0.000002 0.000002 8.267993 9.282963 4.638466 -18.433844 0.000002 0.000010 2.173896 -16.351025 -6.990143 2.774742 2.057502 0.117603 5.946301 -12.945150 -2.646906 7.073358 4.957696 0.000002 -0.000002 -6.296544 1.340597 -171.719166 -0.000004 0.000004 -8.465498 -112.384295 -154.426916 -165.145218 0.000003 0.000003 -14.594895 -639.949547 -7.780344 -358.631677 -3.048502 -0.728798 6.604097 16.088331 -6.961803 7.823360 -3.710293 -0.000000 -0.000009 38.095131 -2.245379 156.886822 0.000001 0.000005 -10.450896 333.404920 -30.794034 356.265645 0.000000 0.000000 -12.539195 425.685639 185.734727 -181.949273 2.442597 -0.601402 -2.767498 134.141104 -9.497098 97.165124 -0.000002 0.000004 -17.033707 -169.271185 47.326961 174.997342 -0.000001 0.000000 -19.318804 -146.827279 120.312198 400.202749 -3.126194 -0.601406 -2.283498 -133.629181 -23.988973 -104.702709 -0.000004 -0.000003 -16.919392 308.591690 -57.260140 -218.749280 0.000001 -0.000002 -18.035896 167.853907 53.927117 -181.495174
23.459099 37.827904 8.945095 2.681662 8.194350 -3.030696 -0.128499 0.160402 6.566007 -2.397526 -1.038519 1.627644 -0.000000 0.000002 3.554805 0.307590 -12.210378 -1.306468 -0.000000 -0.000004 8.267992 9.305831 4.612005 -18.453067 0.000003 0.000008 2.173896 -16.388209 -6.998352 2.804956 2.057498 0.117596 5.946299 -12.959003 -2.649043 7.060912 4.957696 0.000004 0.000004 -6.344972 1.329147 -171.709248 -0.000001 -0.000005 -8.465494 -112.443710 -154.427258 -165.119236 0.000004 0.000005 -14.594893 -640.048612 -7.832036 -358.627470 -3.048502 -0.728803 6.604095 16.116654 -6.950745 7.787064 -3.710298 0.000004 -0.000008 38.196703 -2.280182 156.903775 0.000005 0.000006 -10.450894 333.523219 -30.843833 356.263022 -0.000002 -0.000004 -12.539193 425.761263 185.718458 -181.947538 2.442596 -0.601404 -2.767498 134.134042 -9.516766 97.162637 0.000001 -0.000002 -17.033707 -169.261418 47.332384 175.005525 0.000000 -0.000002 -19.318802 -146.825011 120.315927 400.194854 -3.126197 -0.601405 -2.283501 -133.628867 -23.990225 -104.691603 -0.000003 -0.000001 -16.919394 308.637807 -57.280319 -218.715006 0.000001 0.000001 -18.035896 167.912305 53.924077 -181.499081
23.459999 37.828304 8.945297 2.683478 8.193760 -3.028363 -0.128499 0.160397 6.566012 -2.399207 -1.031742 1.622596 -0.000001 0.000001 3.554808 0.325289 -12.203257 -1.301731 -0.000001 0.000002 8.268000 9.325200 4.587111 -18.468143 0.000000 0.000003 2.173898 -16.424069 -7.008022 2.831236 2.057501 0.117603 5.946304 -12.973035 -2.652783 7.043778 4.957700 0.000005 -0.000004 -6.386725 1.318012 -171.695465 -0.000006 0.000004 -8.465491 -112.502928 -154.424840 -165.092489 -0.000001 -0.000001 -14.594894 -640.142049 -7.887666 -358.621651 -3.048502 -0.728799 6.604101 16.134613 -6.942541 7.768732 -3.710296 -0.000003 -0.000008 38.278545 -2.312996 156.906248 0.000000 0.000002 -10.450895 333.607203 -30.891494 356.256820 0.000005 0.000001 -12.539186 425.845656 185.703595 -181.947661 2.442594 -0.601398 -2.767495 134.126856 -9.533931 97.159653 0.000000 0.000001 -17.033707 -169.252402 47.337599 175.012300 -0.000002 -0.000003 -19.318804 -146.822785 120.319301 400.187614 -3.126203 -0.601399 -2.283497 -133.628157 -23.996794 -104.679295 -0.000001 -0.000006 -16.919401 308.677750 -57.300984 -218.682781 0.000000 0.000002 -18.035898 167.971154 53.920747 -181.501950
23.460999 37.828701 8.945599 2.685427 8.193015 -3.027029 -0.128501 0.160403 6.566010 -2.400699 -1.024742 1.617165 -0.000004 0.000003 3.554812 0.346250 -12.195007 -1.296028 0.000004 0.000004 8.267999 9.340627 4.564067 -18.478153 0.000000 0.000006 2.173897 -16.457566 -7.018851 2.852223 2.057509 0.117607 5.946306 -12.988264 -2.657100 7.023195 4.957701 0.000004 -0.000006 -6.419020 1.306252 -171.678581 -0.000003 0.000001 -8.465497 -112.559585 -154.419102 -165.065045 -0.000001 -0.000003 -14.594896 -640.229093 -7.946683 -358.613126 -3.048499 -0.728799 6.604099 16.141856 -6.937147 7.767394 -3.710296 0.000002 -0.000003 38.340154 -2.342007 156.895784 0.000003 0.000009 -10.450896 333.656134 -30.935224 356.246521 -0.000003 -0.000003 -12.539193 425.938793 185.690413 -181.951718 2.442592 -0.601400 -2.767498 134.119425 -9.548452 97.156272 -0.000002 0.000002 -17.033709 -169.244219 47.342705 175.017710 -0.000001 -0.000002 -19.318802 -146.820476 120.322183 400.181084 -3.126199 -0.601398 -2.283498 -133.627337 -24.007951 -104.666536 -0.000003 -0.000000 -16.919395 308.711518 -57.321823 -218.653179 0.000000 -0.000004 -18.035896 168.028883 53.917052 -181.503576
